# Blender v3.2.1 OBJ File: 'attachments.blend'
# www.blender.org
mtllib box.mtl
o hub_Cube
v 0.196944 0.158832 -0.196944
v 0.362809 -0.122048 -0.362809
v 0.196944 0.158832 0.196944
v 0.362809 -0.122048 0.362809
v -0.196944 0.158832 -0.196944
v -0.362809 -0.122048 -0.362809
v -0.196944 0.158832 0.196944
v -0.362809 -0.122048 0.362809
v -0.362809 -0.122048 -0.362809
v -0.362809 -0.122048 0.362809
v 0.362809 -0.122048 -0.362809
v 0.196944 0.157206 -0.196944
v -0.196944 0.157206 0.196944
v 0.196944 0.157206 0.196944
v 0.362809 -0.122048 0.362809
v -0.196944 0.157206 -0.196944
v 0.196944 0.157206 0.196944
v -0.196944 0.157206 0.196944
v 0.196944 0.157206 -0.196944
v -0.196944 0.157206 -0.196944
v 0.052694 0.157340 -0.161434
v 0.052694 0.306661 -0.161434
v 0.169816 0.157340 0.000229
v 0.169816 0.306661 0.000229
v 0.052258 0.157340 0.161575
v 0.052258 0.306661 0.161575
v -0.137519 0.157340 0.099630
v -0.137519 0.306661 0.099630
v -0.137249 0.157340 -0.100001
v -0.137249 0.306661 -0.100001
v 0.043570 0.381891 0.134097
v -0.114070 0.381890 0.082876
v -0.114070 0.381890 -0.082876
v 0.043570 0.381891 -0.134097
v 0.140998 0.381890 -0.000000
v -0.000000 0.469031 -0.000000
v 0.108486 0.394268 0.078820
v -0.041439 0.394268 0.127533
v -0.134097 0.394268 -0.000000
v -0.041439 0.394268 -0.127533
v 0.108486 0.394268 -0.078820
v 0.025609 0.445488 0.078820
v 0.082876 0.445488 -0.000000
v -0.067048 0.445488 0.048713
v -0.067048 0.445488 -0.048713
v 0.025609 0.445488 -0.078820
v -0.137384 0.306661 -0.000186
vt 0.625000 0.500000
vt 0.625000 0.750000
vt 0.875000 0.750000
vt 0.875000 0.500000
vt 0.375000 0.750000
vt 0.375000 1.000000
vt 0.625000 1.000000
vt 0.375000 0.000000
vt 0.375000 0.250000
vt 0.625000 0.250000
vt 0.625000 0.000000
vt 0.125000 0.500000
vt 0.125000 0.750000
vt 0.375000 0.500000
vt 0.125000 0.500000
vt 0.375000 0.500000
vt 0.375000 0.750000
vt 0.125000 0.750000
vt 1.000000 0.500000
vt 1.000000 1.000000
vt 0.800000 1.000000
vt 0.800000 0.500000
vt 0.600000 1.000000
vt 0.600000 0.500000
vt 0.400000 1.000000
vt 0.400000 0.500000
vt 0.300000 1.000000
vt 0.200000 1.000000
vt 0.200000 0.500000
vt 0.000000 1.000000
vt 0.000000 0.500000
vt 0.181819 0.314921
vt 0.272728 0.314921
vt 0.227273 0.393651
vt 0.000000 0.314921
vt 0.090910 0.314921
vt 0.045455 0.393651
vt 0.727273 0.314921
vt 0.818182 0.314921
vt 0.772727 0.393651
vt 0.545455 0.314921
vt 0.636364 0.314921
vt 0.590909 0.393651
vt 0.363637 0.314921
vt 0.454546 0.314921
vt 0.409092 0.393651
vt 0.500000 0.393651
vt 0.454546 0.472382
vt 0.681818 0.393651
vt 0.636364 0.472382
vt 0.863636 0.393651
vt 0.818182 0.472382
vt 0.909091 0.314921
vt 0.136365 0.393651
vt 0.090910 0.472382
vt 0.318182 0.393651
vt 0.272728 0.472382
vt 0.000000 0.000000
vt 0.000000 0.000000
vt 0.000000 0.000000
vn 0.0000 -1.0000 0.0000
vn 0.0000 -0.5085 -0.8611
vn 0.8611 -0.5085 0.0000
vn 0.0000 1.0000 0.0000
vn -0.8611 -0.5085 0.0000
vn 0.0000 -0.5085 0.8611
vn 0.8098 0.0000 -0.5867
vn 0.8082 0.0000 0.5889
vn -0.3103 0.0000 0.9506
vn -1.0000 0.0000 -0.0014
vn -0.3077 0.0000 -0.9515
vn 0.4089 0.6617 0.6284
vn -0.4713 0.6617 0.5831
vn -0.7002 0.6617 -0.2680
vn 0.0385 0.6617 -0.7488
vn 0.7240 0.6617 -0.1947
vn 0.2680 0.9435 -0.1947
vn 0.4911 0.7947 -0.3568
vn 0.4089 0.6617 -0.6284
vn -0.1024 0.9435 -0.3151
vn -0.1876 0.7947 -0.5773
vn -0.4713 0.6617 -0.5831
vn -0.3313 0.9435 0.0000
vn -0.6071 0.7947 0.0000
vn -0.7002 0.6617 0.2680
vn -0.1024 0.9435 0.3151
vn -0.1876 0.7947 0.5773
vn 0.0385 0.6617 0.7488
vn 0.2680 0.9435 0.1947
vn 0.4911 0.7947 0.3568
vn 0.7240 0.6617 0.1947
vn -0.3101 0.0375 0.9500
vn 0.8077 0.0375 0.5885
vn 0.5716 0.3389 0.7472
vn -0.0230 0.3407 0.9399
vn -0.5340 0.3389 0.7746
vn -0.9010 0.3407 0.2686
vn -0.9993 0.0375 -0.0014
vn -0.9017 0.3389 -0.2685
vn -0.5339 0.3407 -0.7739
vn -0.3075 0.0375 -0.9508
vn -0.0233 0.3389 -0.9405
vn 0.5710 0.3407 -0.7469
vn 0.8092 0.0375 -0.5863
vn 0.8873 0.3389 -0.3128
vn 0.8868 0.3407 0.3123
usemtl Material
s off
f 1/1/1 3/2/1 7/3/1 5/4/1
f 4/5/2 8/6/2 7/7/2 3/2/2
f 8/8/3 6/9/3 5/10/3 7/11/3
f 6/12/4 8/13/4 4/5/4 2/14/4
f 2/14/5 4/5/5 3/2/5 1/1/5
f 6/9/6 2/14/6 1/1/6 5/10/6
f 9/15/1 11/16/1 15/17/1 10/18/1
f 21/19/7 22/20/7 24/21/7 23/22/7
f 23/22/8 24/21/8 26/23/8 25/24/8
f 25/24/9 26/23/9 28/25/9 27/26/9
f 27/26/10 28/25/10 47/27/10 30/28/10 29/29/10
f 29/29/11 30/28/11 22/30/11 21/31/11
f 31/32/12 37/33/12 42/34/12
f 32/35/13 38/36/13 44/37/13
f 33/38/14 39/39/14 45/40/14
f 34/41/15 40/42/15 46/43/15
f 35/44/16 41/45/16 43/46/16
f 43/46/17 46/47/17 36/48/17
f 43/46/18 41/45/18 46/47/18
f 41/45/19 34/41/19 46/47/19
f 46/43/20 45/49/20 36/50/20
f 46/43/21 40/42/21 45/49/21
f 40/42/22 33/38/22 45/49/22
f 45/40/23 44/51/23 36/52/23
f 45/40/24 39/39/24 44/51/24
f 39/39/25 32/53/25 44/51/25
f 44/37/26 42/54/26 36/55/26
f 44/37/27 38/36/27 42/54/27
f 38/36/28 31/32/28 42/54/28
f 42/34/29 43/56/29 36/57/29
f 42/34/30 37/33/30 43/56/30
f 37/33/31 35/44/31 43/56/31
f 28/25/32 26/23/32 38/58/32
f 24/21/33 37/59/33 26/23/33
f 31/32/34 26/23/34 37/33/34
f 26/23/35 31/32/35 38/58/35
f 38/58/36 32/35/36 28/25/36
f 32/35/37 39/39/37 28/25/37
f 39/39/38 30/60/38 28/25/38
f 39/39/39 33/38/39 30/60/39
f 33/38/40 40/42/40 30/60/40
f 30/60/41 40/42/41 22/30/41
f 40/42/42 34/41/42 22/30/42
f 34/41/43 41/45/43 22/30/43
f 22/30/44 41/45/44 24/21/44
f 41/45/45 35/44/45 24/21/45
f 35/44/46 37/59/46 24/21/46
l 16 20
l 19 12
l 14 17
l 18 13
