# Blender v3.2.1 OBJ File: 'parts.blend'
# www.blender.org
mtllib scaffold.mtl
o Scaffold_Cube.002
v -0.500000 0.400000 -0.400000
v -0.400000 0.400000 0.500000
v 0.400000 0.500000 -0.400000
v 0.400000 0.400000 0.500000
v -0.400000 -0.500000 -0.400000
v -0.400000 -0.400000 0.500000
v 0.400000 -0.500000 -0.400000
v 0.400000 -0.400000 0.500000
v -0.500000 0.400000 0.400000
v 0.400000 0.500000 0.400000
v 0.400000 -0.500000 0.400000
v -0.400000 -0.500000 0.400000
v 0.500000 -0.400000 0.400000
v 0.500000 -0.400000 -0.400000
v -0.500000 -0.400000 -0.400000
v -0.500000 -0.400000 0.400000
v -0.400000 0.500000 -0.400000
v -0.400000 0.500000 0.400000
v -0.500000 -0.500000 0.500000
v -0.400000 -0.400000 -0.500000
v 0.500000 0.400000 -0.400000
v -0.400000 0.400000 -0.500000
v -0.500000 0.500000 0.500000
v 0.500000 0.400000 0.400000
v 0.500000 0.500000 0.500000
v 0.400000 0.400000 -0.500000
v 0.400000 -0.400000 -0.500000
v 0.500000 -0.500000 0.500000
v 0.500000 0.500000 -0.500000
v -0.500000 0.500000 -0.500000
v 0.500000 -0.500000 -0.500000
v -0.500000 -0.500000 -0.500000
v 0.400000 -0.400000 0.400000
v 0.400000 -0.400000 -0.400000
v -0.400000 -0.400000 -0.400000
v -0.400000 -0.400000 0.400000
v 0.400000 0.400000 0.400000
v 0.400000 0.400000 -0.400000
v 0.400000 -0.400000 -0.400000
v 0.400000 -0.400000 0.400000
v 0.400000 0.400000 -0.400000
v -0.400000 0.400000 -0.400000
v -0.400000 0.400000 0.400000
v 0.400000 0.400000 0.400000
v -0.400000 0.400000 -0.400000
v -0.400000 0.400000 0.400000
v -0.400000 -0.400000 0.400000
v -0.400000 -0.400000 -0.400000
v 0.400000 0.400000 -0.400000
v -0.400000 0.400000 -0.400000
v 0.400000 -0.400000 -0.400000
v -0.400000 -0.400000 -0.400000
v -0.400000 0.400000 0.400000
v 0.400000 0.400000 0.400000
v 0.400000 -0.400000 0.400000
v -0.400000 -0.400000 0.400000
vt 0.245715 0.351599
vt 0.356631 0.398199
vt 0.347715 0.408495
vt 0.353794 0.500173
vt 0.414558 0.491980
vt 0.423386 0.501395
vt 0.531007 0.725682
vt 0.430086 0.545188
vt 0.432626 0.528315
vt 0.106472 0.719643
vt 0.057827 0.226904
vt 0.118393 0.296832
vt 0.191839 0.540525
vt 0.316818 0.487271
vt 0.332895 0.496157
vt 0.574081 0.680694
vt 0.547084 0.338231
vt 0.562553 0.266671
vt 0.430416 0.404508
vt 0.599359 0.162614
vt 0.436035 0.412325
vt 0.431501 0.514214
vt 0.439674 0.509317
vt 0.603312 0.810051
vt 0.344786 0.509085
vt 0.353298 0.527283
vt 0.192426 0.669924
vt 0.259284 0.645556
vt 0.183855 0.359011
vt 0.672461 0.891407
vt 0.665652 0.085930
vt 0.337507 0.418309
vt 0.515629 0.189535
vt 0.429783 0.389246
vt 0.420369 0.417645
vt 0.346992 0.427533
vt 0.322144 0.425990
vt 0.219728 0.387965
vt 0.364584 0.541312
vt 0.481275 0.675190
vt 0.299306 0.616827
vt 0.359670 0.490804
vt 0.413982 0.430896
vt 0.356734 0.433493
vt 0.427265 0.376863
vt 0.285750 0.340125
vt 0.470556 0.259058
vt 0.743109 0.000000
vt 0.743109 1.000000
vt 0.000000 0.757065
vt 0.253692 0.404783
vt 0.226548 0.512776
vt 0.309931 0.435312
vt 0.445005 0.503101
vt 0.538704 0.599455
vt 0.444723 0.419243
vn 0.0000 0.0000 1.0000
vn 0.0000 1.0000 0.0000
vn 0.0000 0.0000 -1.0000
vn 1.0000 0.0000 0.0000
vn 0.0000 -1.0000 0.0000
vn -1.0000 0.0000 0.0000
usemtl Material.004
s off
f 17/1/1 41/2/1 3/3/1
f 14/4/2 40/5/2 13/6/2
f 12/7/3 33/8/3 11/9/3
f 15/10/1 45/11/1 1/12/1
f 20/13/2 51/14/2 27/15/2
f 6/16/4 53/17/4 2/18/4
f 2/18/1 25/19/1 23/20/1
f 4/21/1 28/22/1 25/19/1
f 8/23/1 19/24/1 28/22/1
f 6/16/1 23/20/1 19/24/1
f 11/9/5 31/25/5 28/22/5
f 7/26/5 32/27/5 31/25/5
f 12/7/5 28/22/5 19/24/5
f 5/28/5 19/24/5 32/27/5
f 1/12/6 23/20/6 30/29/6
f 16/30/6 32/27/6 19/24/6
f 15/10/6 30/29/6 32/27/6
f 9/31/6 19/24/6 23/20/6
f 17/1/2 29/32/2 30/29/2
f 18/33/2 30/29/2 23/20/2
f 10/34/2 23/20/2 25/19/2
f 3/3/2 25/19/2 29/32/2
f 24/35/4 29/32/4 25/19/4
f 21/36/4 31/25/4 29/32/4
f 13/6/4 25/19/4 28/22/4
f 14/4/4 28/22/4 31/25/4
f 26/37/3 30/29/3 29/32/3
f 27/15/3 29/32/3 31/25/3
f 20/13/3 31/25/3 32/27/3
f 22/38/3 32/27/3 30/29/3
f 11/9/6 34/39/6 7/26/6
f 5/28/4 36/40/4 12/7/4
f 7/26/1 35/41/1 5/28/1
f 21/36/1 39/42/1 14/4/1
f 13/6/3 37/43/3 24/35/3
f 24/35/5 38/44/5 21/36/5
f 3/3/6 44/45/6 10/34/6
f 18/33/4 42/46/4 17/1/4
f 10/34/3 43/47/3 18/33/3
f 1/12/5 46/48/5 9/31/5
f 9/31/3 47/49/3 16/30/3
f 16/30/2 48/50/2 15/10/2
f 26/37/5 50/51/5 22/38/5
f 22/38/4 52/52/4 20/13/4
f 27/15/6 49/53/6 26/37/6
f 4/21/6 55/54/6 8/23/6
f 8/23/2 56/55/2 6/16/2
f 2/18/5 54/56/5 4/21/5
f 17/1/1 42/46/1 41/2/1
f 14/4/2 39/42/2 40/5/2
f 12/7/3 36/40/3 33/8/3
f 15/10/1 48/50/1 45/11/1
f 20/13/2 52/52/2 51/14/2
f 6/16/4 56/55/4 53/17/4
f 2/18/1 4/21/1 25/19/1
f 4/21/1 8/23/1 28/22/1
f 8/23/1 6/16/1 19/24/1
f 6/16/1 2/18/1 23/20/1
f 11/9/5 7/26/5 31/25/5
f 7/26/5 5/28/5 32/27/5
f 12/7/5 11/9/5 28/22/5
f 5/28/5 12/7/5 19/24/5
f 1/12/6 9/31/6 23/20/6
f 16/30/6 15/10/6 32/27/6
f 15/10/6 1/12/6 30/29/6
f 9/31/6 16/30/6 19/24/6
f 17/1/2 3/3/2 29/32/2
f 18/33/2 17/1/2 30/29/2
f 10/34/2 18/33/2 23/20/2
f 3/3/2 10/34/2 25/19/2
f 24/35/4 21/36/4 29/32/4
f 21/36/4 14/4/4 31/25/4
f 13/6/4 24/35/4 25/19/4
f 14/4/4 13/6/4 28/22/4
f 26/37/3 22/38/3 30/29/3
f 27/15/3 26/37/3 29/32/3
f 20/13/3 27/15/3 31/25/3
f 22/38/3 20/13/3 32/27/3
f 11/9/6 33/8/6 34/39/6
f 5/28/4 35/41/4 36/40/4
f 7/26/1 34/39/1 35/41/1
f 21/36/1 38/44/1 39/42/1
f 13/6/3 40/5/3 37/43/3
f 24/35/5 37/43/5 38/44/5
f 3/3/6 41/2/6 44/45/6
f 18/33/4 43/47/4 42/46/4
f 10/34/3 44/45/3 43/47/3
f 1/12/5 45/11/5 46/48/5
f 9/31/3 46/48/3 47/49/3
f 16/30/2 47/49/2 48/50/2
f 26/37/5 49/53/5 50/51/5
f 22/38/4 50/51/4 52/52/4
f 27/15/6 51/14/6 49/53/6
f 4/21/6 54/56/6 55/54/6
f 8/23/2 55/54/2 56/55/2
f 2/18/5 53/17/5 54/56/5
