# Blender 3.2.1
# www.blender.org
mtllib tank-body.mtl
o TankBody
v 0.500000 0.000000 -0.500000
v 0.500000 0.000000 0.500000
v 0.404509 -0.293893 -0.500000
v 0.404509 -0.293893 0.500000
v 0.154508 -0.475528 -0.500000
v 0.154508 -0.475528 0.500000
v -0.154509 -0.475528 -0.500000
v -0.154509 -0.475528 0.500000
v -0.404509 -0.293893 -0.500000
v -0.404509 -0.293893 0.500000
v -0.500000 0.000000 -0.500000
v -0.500000 0.000000 0.500000
v -0.404508 0.293893 -0.500000
v -0.404508 0.293893 0.500000
v -0.154509 0.475528 -0.500000
v -0.154509 0.475528 0.500000
v 0.154509 0.475528 -0.500000
v 0.154509 0.475528 0.500000
v 0.404508 0.293893 -0.500000
v 0.404508 0.293893 0.500000
vn 0.9511 -0.3090 -0.0000
vn 0.5878 -0.8090 -0.0000
vn -0.0000 -1.0000 -0.0000
vn -0.5878 -0.8090 -0.0000
vn -0.9511 -0.3090 -0.0000
vn -0.9511 0.3090 -0.0000
vn -0.5878 0.8090 -0.0000
vn -0.0000 1.0000 -0.0000
vn -0.0000 -0.0000 1.0000
vn 0.5878 0.8090 -0.0000
vn 0.9511 0.3090 -0.0000
vn -0.0000 -0.0000 -1.0000
vt 0.417530 0.239751
vt 0.064704 0.239751
vt 0.329324 0.236320
vt 0.417530 0.411289
vt 0.152911 0.236320
vt 0.064704 0.411289
vt 0.382247 0.239751
vt 0.379096 0.220595
vt 0.382247 0.411289
vt 0.202683 0.220595
vt 0.346965 0.239751
vt 0.409857 0.179426
vt 0.346965 0.411289
vt 0.233445 0.179426
vt 0.311682 0.239751
vt 0.409857 0.128538
vt 0.311682 0.411289
vt 0.233445 0.128538
vt 0.276400 0.239751
vt 0.379096 0.087369
vt 0.276400 0.411289
vt 0.202683 0.087369
vt 0.241117 0.239751
vt 0.329324 0.071644
vt 0.241117 0.411289
vt 0.152911 0.071644
vt 0.205835 0.239751
vt 0.279551 0.087369
vt 0.205835 0.411289
vt 0.103138 0.087369
vt 0.170552 0.239751
vt 0.248790 0.128538
vt 0.170552 0.411289
vt 0.072377 0.128538
vt 0.135269 0.239751
vt 0.248790 0.179426
vt 0.072377 0.179426
vt 0.135269 0.411289
vt 0.099987 0.239751
vt 0.279551 0.220595
vt 0.103138 0.220595
vt 0.099987 0.411289
s 0
g TankBody_tank
usemtl tank
f 1/1/1 2/4/1 4/9/1 3/7/1
f 3/7/2 4/9/2 6/13/2 5/11/2
f 5/11/3 6/13/3 8/17/3 7/15/3
f 7/15/4 8/17/4 10/21/4 9/19/4
f 9/19/5 10/21/5 12/25/5 11/23/5
f 11/23/6 12/25/6 14/29/6 13/27/6
f 13/27/7 14/29/7 16/33/7 15/31/7
f 15/31/8 16/33/8 18/38/8 17/35/8
f 4/10/9 2/5/9 20/41/9 18/37/9 16/34/9 14/30/9 12/26/9 10/22/9 8/18/9 6/14/9
f 17/35/10 18/38/10 20/42/10 19/39/10
f 19/39/11 20/42/11 2/6/11 1/2/11
f 1/3/12 3/8/12 5/12/12 7/16/12 9/20/12 11/24/12 13/28/12 15/32/12 17/36/12 19/40/12
