# Blender 3.2.1
# www.blender.org
mtllib tank-cap.mtl
o TankCap
v -0.425325 -0.138194 -0.276391
v -0.262863 0.361803 -0.276391
v 0.262863 0.361803 -0.276391
v 0.425325 -0.138194 -0.276391
v 0.000000 -0.447214 -0.276393
v 0.000000 -0.000000 -0.000001
v -0.154506 -0.475529 -0.500000
v 0.154506 -0.475529 -0.500000
v -0.500000 -0.000000 -0.500000
v -0.404508 -0.293893 -0.500000
v -0.154506 0.475529 -0.500000
v -0.404508 0.293892 -0.500000
v 0.404508 0.293892 -0.500000
v 0.154506 0.475529 -0.500000
v 0.404508 -0.293893 -0.500000
v 0.500000 -0.000000 -0.500000
v -0.249998 -0.344095 -0.237133
v -0.404506 0.131434 -0.237132
v 0.000000 0.425324 -0.237133
v 0.404506 0.131434 -0.237132
v 0.249998 -0.344095 -0.237133
v -0.249998 -0.081228 -0.074674
v 0.000000 -0.262865 -0.074675
v -0.154506 0.212661 -0.074674
v 0.154506 0.212661 -0.074674
v 0.249998 -0.081228 -0.074674
v 0.095403 -0.029971 -0.031304
v 0.047508 -0.014925 0.068696
v 0.000977 -0.099995 -0.031304
v 0.000487 -0.049795 0.068696
v -0.094799 -0.031830 -0.031304
v -0.047207 -0.015850 0.068696
v -0.059566 0.080323 -0.031304
v -0.029662 0.039999 0.068696
v 0.057985 0.081472 -0.031304
v 0.028875 0.040571 0.068696
v 0.000977 -0.099995 0.068696
v 0.095403 -0.029971 0.068696
v -0.094799 -0.031830 0.068696
v -0.059566 0.080323 0.068696
v 0.057985 0.081472 0.068696
v 0.000487 -0.049795 0.023107
v 0.047508 -0.014925 0.023107
v -0.047207 -0.015850 0.023107
v -0.029662 0.039999 0.023107
v 0.028875 0.040571 0.023107
vn -0.6284 -0.4089 0.6617
vn -0.5831 0.4713 0.6617
vn 0.2680 0.7002 0.6617
vn 0.7488 -0.0385 0.6617
vn 0.1947 -0.7240 0.6617
vn 0.1947 -0.2680 0.9435
vn 0.3568 -0.4911 0.7947
vn 0.6284 -0.4089 0.6617
vn 0.3151 0.1024 0.9435
vn 0.5773 0.1876 0.7947
vn 0.5831 0.4713 0.6617
vn -0.0000 0.3313 0.9435
vn -0.0000 0.6071 0.7947
vn -0.2680 0.7002 0.6617
vn -0.3151 0.1024 0.9435
vn -0.5773 0.1876 0.7947
vn -0.7488 -0.0385 0.6617
vn -0.1947 -0.2680 0.9435
vn -0.3568 -0.4911 0.7947
vn -0.1947 -0.7240 0.6617
vn 0.3151 -0.8897 0.3304
vn 0.5773 -0.7947 0.1876
vn 0.7488 -0.5746 0.3304
vn 0.9435 0.0247 0.3304
vn 0.9342 0.3035 0.1876
vn 0.7779 0.5346 0.3304
vn 0.2680 0.9050 0.3304
vn -0.0000 0.9822 0.1876
vn -0.2680 0.9050 0.3304
vn -0.7779 0.5346 0.3304
vn -0.9342 0.3035 0.1876
vn -0.9435 0.0247 0.3304
vn -0.7488 -0.5746 0.3304
vn -0.5773 -0.7947 0.1876
vn -0.3151 -0.8897 0.3304
vn 0.9435 -0.3066 0.1256
vn 0.5831 0.8026 0.1256
vn -0.5831 0.8026 0.1256
vn -0.9435 -0.3066 0.1256
vn -0.0000 -0.9921 0.1256
vn -0.0000 -0.0000 1.0000
vn 0.5957 -0.8032 -0.0000
vn -0.5799 -0.8147 -0.0000
vn -0.9540 0.2997 -0.0000
vn -0.5957 0.8032 -0.0000
vn -0.0098 1.0000 -0.0000
vn 0.9480 0.3183 -0.0000
vn 0.0098 -1.0000 -0.0000
vn 0.5799 0.8147 -0.0000
vn -0.9480 -0.3183 -0.0000
vn 0.9540 -0.2997 -0.0000
vt 0.123378 0.724098
vt 0.529163 0.073875
vt 0.174255 0.942101
vt 0.622795 0.495976
vt 0.529163 0.348073
vt 0.335292 0.874059
vt 0.622795 0.770173
vt 0.368191 0.651828
vt 0.872926 0.617002
vt 0.717865 0.210974
vt 0.008603 0.521561
vt 0.742447 0.560457
vt 0.000000 0.180194
vt 0.879033 0.474902
vt 0.094732 0.049806
vt 0.013165 0.813961
vt 0.094734 0.471756
vt 0.000000 0.653329
vt 0.000000 0.341366
vt 0.496033 0.552572
vt 0.401301 0.471755
vt 0.043070 0.942101
vt 0.516716 0.421948
vt 0.248017 0.521560
vt 0.466039 0.863061
vt 0.516716 0.843898
vt 0.496033 0.180194
vt 0.496033 0.713740
vt 0.496033 0.341366
vt 1.000000 0.421948
vt 0.485377 0.571265
vt 0.248016 0.000000
vt 0.485377 0.732436
vt 0.401299 0.049804
vt 0.897331 0.080585
vt 0.143636 0.591486
vt 0.778998 0.712444
vt 0.649314 0.000000
vt 0.164938 0.851394
vt 0.496033 0.210974
vt 0.635544 0.633167
vt 0.649314 0.421948
vt 0.337168 0.782340
vt 0.897331 0.341364
vt 1.000000 0.574013
vt 0.337169 0.521560
vt 0.245572 0.713898
vt 0.760231 0.080585
vt 0.854965 0.210974
vt 0.938174 0.720821
vt 0.742448 0.552357
vt 0.606950 0.130390
vt 0.742448 0.713525
vt 0.606950 0.291558
vt 0.245572 0.652012
vt 0.760231 0.341363
vt 0.855401 0.798153
vt 0.780211 0.863469
vt 0.768631 0.770424
vt 0.648734 0.891954
vt 0.862758 0.848003
vt 0.505334 0.950296
vt 0.786578 0.795125
vt 0.776293 0.888047
vt 0.555195 0.943012
vt 0.855401 0.906345
vt 0.815616 0.785690
vt 0.780211 0.912871
vt 0.648734 0.891988
vt 0.905262 0.899061
vt 0.725395 0.863513
vt 0.815616 0.755158
vt 0.625457 0.922486
vt 0.648734 0.922520
vt 0.725395 0.924824
vt 0.862758 0.748799
vt 0.786578 0.745723
vt 0.625457 0.891954
vt 0.648734 0.922486
vt 0.913815 0.847929
vt 0.505334 0.899238
vt 0.778486 0.820027
vt 0.906459 0.798078
vt 0.742448 0.770424
vt 0.555195 0.891954
vt 0.855401 0.855287
vt 0.836799 0.801081
vt 0.905262 0.848003
vt 0.776293 0.863433
vt 0.836799 0.739767
vt 0.776293 0.924745
vt 0.913815 0.748724
vt 0.778486 0.720821
vt 0.573142 0.891954
vt 0.799497 0.888011
vt 0.803416 0.863433
vt 0.602180 0.901389
vt 0.625457 0.891988
vt 0.555195 0.916656
vt 0.803416 0.912834
vt 0.672011 0.891954
vt 0.573142 0.941357
vt 0.602180 0.922520
vt 0.672011 0.922486
vt 0.602180 0.931922
vt 0.602180 0.891988
vt 0.625457 0.922520
s 0
g TankCap_tank
usemtl tank
f 1/1/1 17/36/1 22/47/1
f 2/2/2 18/38/2 24/52/2
f 3/7/3 19/41/3 25/53/3
f 4/8/4 20/43/4 26/55/4
f 5/9/5 21/45/5 23/50/5
f 23/49/6 26/56/6 6/10/6
f 23/49/7 21/44/7 26/56/7
f 21/46/8 4/8/8 26/55/8
f 26/56/9 25/54/9 6/10/9
f 26/56/10 20/42/10 25/54/10
f 20/42/11 3/5/11 25/54/11
f 25/54/12 24/52/12 6/10/12
f 25/54/13 19/40/13 24/52/13
f 19/41/14 2/4/14 24/51/14
f 24/52/15 22/48/15 6/10/15
f 24/52/16 18/38/16 22/48/16
f 18/39/17 1/1/17 22/47/17
f 22/48/18 23/49/18 6/10/18
f 22/48/19 17/35/19 23/49/19
f 17/37/20 5/9/20 23/50/20
f 8/14/21 21/45/21 5/9/21
f 8/14/22 15/30/22 21/45/22
f 15/31/23 4/8/23 21/46/23
f 16/33/24 20/43/24 4/8/24
f 16/33/25 13/25/25 20/43/25
f 13/25/26 3/6/26 20/43/26
f 14/28/27 19/41/27 3/7/27
f 14/28/28 11/20/28 19/41/28
f 11/20/29 2/4/29 19/41/29
f 12/22/30 18/39/30 2/3/30
f 12/22/31 9/16/31 18/39/31
f 9/16/32 1/1/32 18/39/32
f 10/18/33 17/36/33 1/1/33
f 10/18/34 7/11/34 17/36/34
f 7/12/35 5/9/35 17/37/35
f 15/31/36 16/33/36 4/8/36
f 13/26/37 14/28/37 3/7/37
f 11/20/38 12/23/38 2/4/38
f 9/16/39 10/18/39 1/1/39
f 7/12/40 8/14/40 5/9/40
f 15/32/41 16/34/41 13/27/41 14/29/41 11/21/41 12/24/41 9/17/41 10/19/41 7/13/41 8/15/41
f 27/57/42 38/83/42 37/80/42 29/61/42
f 29/62/43 37/81/43 39/85/43 31/65/43
f 31/66/44 39/86/44 40/88/44 33/70/44
f 30/64/45 28/58/45 43/96/45 42/95/45
f 33/71/46 40/89/46 41/91/46 35/75/46
f 35/76/47 41/92/47 38/83/47 27/57/47
f 28/59/41 30/63/41 37/82/41 38/84/41
f 30/63/41 32/67/41 39/87/41 37/82/41
f 32/67/41 34/72/41 40/90/41 39/87/41
f 34/72/41 36/77/41 41/93/41 40/90/41
f 36/77/41 28/59/41 38/84/41 41/93/41
f 42/94/41 43/97/41 46/105/41 45/102/41 44/99/41
f 36/78/48 34/73/48 45/103/48 46/106/48
f 32/68/49 30/64/49 42/95/49 44/100/49
f 28/60/50 36/79/50 46/107/50 43/98/50
f 34/74/51 32/69/51 44/101/51 45/104/51
